<svg width="210" height="30" viewBox="0 0 210 30" fill="none" xmlns="http://www.w3.org/2000/svg">
<path d="M10.582 25.7812V23.6543H12.6914V19.418H10.582V17.3086H4.21875V25.7812H10.582ZM10.582 13.0723V10.9453H12.6914V6.70898H10.582V4.59961H4.21875V13.0723H10.582ZM0 30V0.363281H12.6914V2.47266H14.8184V4.59961H16.9277V13.0723H14.8184V17.3086H16.9277V25.7812H14.8184V27.8906H12.6914V30H0ZM19.0547 30V25.7812H23.2734V4.59961H19.0547V0.363281H31.7461V4.59961H27.5098V25.7812H31.7461V30H19.0547ZM40.2363 30V4.59961H33.8906V0.363281H50.8184V4.59961H44.4727V30H40.2363ZM52.9453 30V25.7812H63.5273V23.6543H65.6367V19.418H63.5273V17.3086H57.1641V15.1816H55.0547V13.0723H52.9453V4.59961H55.0547V2.47266H57.1641V0.363281H69.873V4.59961H59.291V6.70898H57.1641V10.9453H59.291V13.0723H65.6367V15.1816H67.7637V17.3086H69.873V25.7812H67.7637V27.8906H65.6367V30H52.9453ZM91.0547 25.7812V21.5449H88.9277V19.418H86.8184V17.3086H84.6914V23.6543H86.8184V25.7812H91.0547ZM88.9277 10.9453V8.83594H91.0547V6.70898H88.9277V4.59961H86.8184V6.70898H84.6914V10.9453H88.9277ZM84.6914 30V27.8906H82.582V25.7812H80.4727V15.1816H82.582V13.0723H80.4727V4.59961H82.582V2.47266H84.6914V0.363281H91.0547V2.47266H93.1641V4.59961H95.291V10.9453H93.1641V13.0723H91.0547V17.3086H93.1641V21.5449H95.291V19.418H97.4004V17.3086H101.637V21.5449H99.5273V23.6543H97.4004V25.7812H101.637V30H95.291V27.8906H93.1641V30H84.6914ZM122.836 25.7812V23.6543H124.945V19.418H122.836V17.3086H116.473V25.7812H122.836ZM122.836 13.0723V10.9453H124.945V6.70898H122.836V4.59961H116.473V13.0723H122.836ZM112.254 30V0.363281H124.945V2.47266H127.072V4.59961H129.182V13.0723H127.072V17.3086H129.182V25.7812H127.072V27.8906H124.945V30H112.254ZM144 25.7812V23.6543H146.127V6.70898H144V4.59961H137.654V6.70898H135.527V23.6543H137.654V25.7812H144ZM135.527 30V27.8906H133.418V25.7812H131.309V4.59961H133.418V2.47266H135.527V0.363281H146.127V2.47266H148.236V4.59961H150.363V25.7812H148.236V27.8906H146.127V30H135.527ZM165.164 25.7812V23.6543H167.291V6.70898H165.164V4.59961H158.818V6.70898H156.691V23.6543H158.818V25.7812H165.164ZM156.691 30V27.8906H154.582V25.7812H152.473V4.59961H154.582V2.47266H156.691V0.363281H167.291V2.47266H169.4V4.59961H171.527V25.7812H169.4V27.8906H167.291V30H156.691ZM173.637 30V19.418H175.746V17.3086H177.855V15.1816H179.982V13.0723H182.092V10.9453H184.219V8.83594H186.328V4.59961H173.637V0.363281H190.564V10.9453H188.455V13.0723H186.328V15.1816H184.219V17.3086H182.092V19.418H179.982V21.5449H177.855V25.7812H190.564V30H173.637ZM192.691 30V0.363281H209.619V4.59961H196.91V13.0723H207.51V17.3086H196.91V25.7812H209.619V30H192.691Z" fill="black"/>
</svg>
