<svg width="334" height="352" viewBox="0 0 334 352" fill="none" xmlns="http://www.w3.org/2000/svg">
<path d="M281.803 312.492L184.079 320.187C172.265 321.117 160.01 320.023 150.039 313.621C133.458 302.974 127.089 288.976 134.294 276.912C143.499 261.499 166.137 275.801 176.841 287.616L278.258 279.855C286.196 268.438 307.425 252.294 319.199 262.997C328.591 271.535 324.912 285.457 316.631 296.853C308.787 307.647 295.105 311.445 281.803 312.492Z" fill="black"/>
<path d="M281.803 309.281L184.079 316.976C172.265 317.906 160.01 316.812 150.039 310.41C133.458 299.764 127.089 285.765 134.294 273.701C143.499 258.288 166.137 272.59 176.841 284.405L278.258 276.644C286.196 265.227 307.425 249.083 319.199 259.786C328.591 268.324 324.912 282.246 316.631 293.642C308.787 304.436 295.105 308.234 281.803 309.281Z" fill="#8FD6D2" stroke="black" stroke-width="1.2"/>
<path d="M211.093 139.104L176.44 148.336L146.005 155.398L136.432 137.766L130.013 139.104L118.881 129.724L144.596 120.507L205.741 83.9805L269.943 85.7094C274.89 85.8426 278.14 90.9271 276.185 95.473L265.416 120.507L269.829 122.38L258.59 137.766L221.797 124.788L226.078 114.084L195.439 120.507L211.093 139.104Z" fill="black"/>
<path d="M174.224 180.476L149.611 124.185L161.295 123.858C176.364 144.1 188.527 166.014 193.467 174.348C196.054 178.712 201.887 199.65 205.625 212.643C209.024 224.462 213.211 236.455 214.663 242.44C220.152 242.297 228.674 242.246 238.039 243.206C249.866 244.419 263.037 247.242 273.145 253.526C288.691 263.19 296.862 284.632 299.014 294.941L176.989 296.885L177.462 275.374L175.964 214.15L174.224 180.476Z" fill="#FCFCF1"/>
<path d="M273.145 253.526C288.691 263.19 296.862 284.632 299.014 294.941L176.989 296.885L177.462 275.374M273.145 253.526C255.195 253.337 243.882 264.281 239.375 273.781L177.462 275.374M273.145 253.526C263.037 247.242 249.866 244.419 238.039 243.206M175.964 214.15L174.224 180.476L149.611 124.185L161.295 123.858C176.364 144.1 188.527 166.014 193.467 174.348C196.054 178.712 201.887 199.65 205.625 212.643M175.964 214.15L177.462 275.374M175.964 214.15L195.757 213.199M205.625 212.643C209.024 224.462 213.211 236.455 214.663 242.44C220.152 242.297 228.674 242.246 238.039 243.206M205.625 212.643L195.757 213.199M195.757 213.199L202.622 246.514C203.596 251.238 207.804 254.594 212.626 254.493L228.262 254.165C233.76 254.049 238.133 249.517 238.051 244.019L238.039 243.206" stroke="black" stroke-width="1.2"/>
<path d="M197.229 219.311L206.844 217.996L198.955 228.105L209.474 225.886L201.173 238.131L212.926 236.981L205.365 251.527L219.172 242.816L221.144 254.568L228.212 242.816L231.91 252.513" stroke="black" stroke-width="1.2" stroke-linejoin="bevel"/>
<ellipse cx="192.604" cy="257.242" rx="6.43222" ry="8.42727" transform="rotate(-30.4125 192.604 257.242)" stroke="black" stroke-width="1.2"/>
<path d="M150.121 191.739L136.614 129.898L147.418 127.29C156.732 151.506 173.515 199.058 165.971 207.86C162.167 212.299 150.17 218.29 137.279 223.644C128.612 227.244 119.541 230.556 112.284 232.914C111.529 241.133 110.288 248.498 108.468 255.043C105.865 264.403 102.078 272.086 96.8287 278.195C87.7625 288.746 74.3362 294.599 55.1242 296.275L59.3316 198.934L76.3689 197.584L130.449 193.298L150.121 191.739Z" fill="#FCFCF1"/>
<path d="M137.279 223.644C128.612 227.244 119.541 230.556 112.284 232.914C111.529 241.133 110.288 248.498 108.468 255.043M137.279 223.644C150.17 218.29 162.167 212.299 165.971 207.86C173.515 199.058 156.732 151.506 147.418 127.29L136.614 129.898L150.121 191.739L130.449 193.298M137.279 223.644L134.729 212.313M130.449 193.298L134.729 212.313M130.449 193.298L76.3689 197.584M134.729 212.313L106.316 220.181C102.644 221.198 99.8689 224.213 99.1596 227.957L96.3373 242.852C95.2554 248.562 99.2519 253.988 105.026 254.649L108.468 255.043M108.468 255.043C105.865 264.403 102.078 272.086 96.8287 278.195M76.3689 197.584L59.3316 198.934L55.1242 296.275C74.3362 294.599 87.7625 288.746 96.8287 278.195M76.3689 197.584L74.3865 255.043C86.8994 259.639 91.8163 264.764 96.8287 278.195" stroke="black" stroke-width="1.2"/>
<path d="M130.312 225.88L126.26 215.172L122.643 229.209L116.999 217.198L114.105 232.248L103.541 221.828L111.5 238.47L98.4764 232.248L110.777 245.995L97.0293 247.297" stroke="black" stroke-width="1.2" stroke-linejoin="bevel"/>
<ellipse cx="91.8634" cy="213.54" rx="6.43222" ry="8.42727" transform="rotate(-131.492 91.8634 213.54)" stroke="black" stroke-width="1.2"/>
<path d="M223.797 118.169L228.445 108.032L234.541 110.138M268.873 121.628L234.541 110.138M234.541 110.138C235.888 108.729 237.987 106.636 240.31 104.497M249.761 95.0827L240.31 104.497M240.31 104.497L237.138 93.8398L233.216 103.858L225.811 95.0827M188.372 145.123L180.62 121.628M176.088 122.821L183.482 146.793" stroke="white" stroke-width="1.2" stroke-linejoin="bevel"/>
<path d="M158.012 126.504L162.427 137.709L174.302 125.584L190.107 128.427L187.18 119.145" stroke="white" stroke-width="1.2" stroke-linejoin="bevel"/>
<path d="M117.528 2.23161C102.763 7.27831 105.129 25.4683 110.714 35.5992C126.056 39.8806 152.527 45.4392 146.037 28.6418C141.354 6.69996 131.54 -2.55791 117.528 2.23161Z" fill="#8FD6D2" stroke="black" stroke-width="1.2" stroke-linejoin="bevel"/>
<path d="M122.199 2.23161C114.938 7.27831 116.101 25.4683 118.848 35.5992C126.393 39.8806 139.412 45.4392 136.22 28.6418C133.917 6.69996 129.09 -2.55791 122.199 2.23161Z" fill="#8FD6D2" stroke="black" stroke-width="1.2" stroke-linejoin="bevel"/>
<path d="M103.776 36.882L116.697 33.3516L140.239 131.888L117.481 138.247C109.975 140.344 102.202 135.909 100.189 128.381L93.4083 103.028C92.2365 98.6461 93.2902 93.9687 96.2276 90.513C99.0065 87.2436 100.108 82.8685 99.2093 78.6729L93.7766 53.3204C92.2198 46.0557 96.609 38.8402 103.776 36.882Z" fill="#FCFCF1" stroke="black" stroke-width="1.2"/>
<path d="M101.911 103.468L109.349 97.9867M103.13 108.359L110.568 102.878M104.35 113.25L111.787 107.768" stroke="black" stroke-width="1.2"/>
<path d="M201.408 115.591L139.672 131.955C132.062 133.972 124.286 129.32 122.465 121.661L105.511 50.3797C103.71 42.8056 108.434 35.2167 116.025 33.4893L178.128 19.3582C185.603 17.6572 193.056 22.2849 194.847 29.7391L211.434 98.7881C213.21 106.182 208.759 113.643 201.408 115.591Z" fill="#FCFCF1" stroke="black" stroke-width="1.2"/>
<path d="M132.828 34.02C127.258 36.5594 122.861 33.4645 120.721 32.3941L138.125 28.4451C143.165 19.6595 145.635 4.91616 156.741 7.23664C165.227 9.00964 162.079 19.3195 158.689 23.7793L138.125 28.4451C136.666 30.9895 134.991 33.0342 132.828 34.02Z" fill="black" stroke="black" stroke-width="1.2" stroke-linejoin="bevel"/>
<path opacity="0.13" d="M198.429 109.717L139.663 125.501C134.285 126.946 128.778 123.653 127.506 118.232L111.461 49.8695C110.213 44.5534 113.524 39.2356 118.845 38.0087L177.96 24.3776C183.243 23.1594 188.519 26.4355 189.77 31.7112L205.465 97.92C206.695 103.108 203.578 108.334 198.429 109.717Z" fill="#475050"/>
<path d="M161.363 100.185C158.335 117.529 169.851 117.818 173.875 99.7186" stroke="black" stroke-width="1.2"/>
<path d="M160.027 68.9762C162.824 83.0347 167.109 98.0164 182.4 95.4315C197.691 92.8466 193.831 74.9233 191.527 60.7064C189.222 46.4896 184.851 31.0683 169.347 35.124C153.844 39.1797 157.231 54.9177 160.027 68.9762Z" fill="#FCFCF1" stroke="black" stroke-width="1.2"/>
<path d="M123.635 77.5387C126.431 91.5972 130.716 106.579 146.007 103.994C161.298 101.409 157.439 83.4858 155.134 69.2689C152.83 55.0521 148.459 39.6308 132.955 43.6865C117.451 47.7422 120.839 63.4802 123.635 77.5387Z" fill="#FCFCF1" stroke="black" stroke-width="1.2"/>
<path fill-rule="evenodd" clip-rule="evenodd" d="M151.257 54.0149L147.585 53.7897L138.855 47.9483L135.003 57.7214L126.75 64.2196L134.854 70.9026L138.484 80.7602L147.345 75.1174L156.038 74.7812C155.867 73.7064 155.69 72.6385 155.515 71.5847C155.386 70.804 155.258 70.0311 155.134 69.2688C154.28 63.9985 153.142 58.5626 151.257 54.0149Z" fill="black"/>
<path fill-rule="evenodd" clip-rule="evenodd" d="M188.266 46.3291L184.297 46.2723L175.732 39.9405L172.295 50.0225L163.627 56.2118L172.154 62.5953L175.361 72.7523L184.067 66.6156L192.901 66.6886C192.734 65.6425 192.562 64.603 192.392 63.5769C192.263 62.7962 192.135 62.0233 192.011 61.261C191.177 56.1145 190.072 50.8102 188.266 46.3291Z" fill="black"/>
<path d="M162.556 136.704L156.295 117.936L172.573 120.525L183.216 108.875L189.476 127.644L173.825 125.055L162.556 136.704Z" fill="black"/>
<path fill-rule="evenodd" clip-rule="evenodd" d="M190.079 86.8564C202.045 81.6657 209.708 72.7591 207.194 66.963C204.68 61.1669 192.941 60.6762 180.974 65.8669C173.041 69.3082 166.999 74.3827 164.56 79.1013C159.571 75.6783 150.237 73.3748 139.546 73.3748C123.603 73.3748 110.68 78.4965 110.68 84.8144C110.68 91.1323 123.603 96.2539 139.546 96.2539C151.997 96.2539 162.607 93.1298 166.657 88.7516C171.414 91.5059 180.676 90.935 190.079 86.8564Z" fill="#FCFCF1"/>
<path d="M190.079 86.8564L189.84 86.306L190.079 86.8564ZM180.974 65.8669L180.735 65.3164L180.974 65.8669ZM164.56 79.1013L164.22 79.596L164.781 79.9805L165.093 79.3768L164.56 79.1013ZM166.657 88.7516L166.957 88.2323L166.542 87.9919L166.216 88.3441L166.657 88.7516ZM206.644 67.2018C207.758 69.7698 206.668 73.193 203.612 76.7454C200.586 80.2629 195.759 83.7386 189.84 86.306L190.317 87.4069C196.365 84.7835 201.353 81.2106 204.522 77.5281C207.66 73.8805 209.145 69.9524 207.745 66.7243L206.644 67.2018ZM181.213 66.4173C187.132 63.85 192.968 62.7006 197.604 62.8944C202.286 63.0901 205.53 64.6338 206.644 67.2018L207.745 66.7243C206.344 63.4962 202.462 61.8964 197.654 61.6954C192.8 61.4925 186.783 62.6931 180.735 65.3164L181.213 66.4173ZM165.093 79.3768C167.444 74.8271 173.349 69.8286 181.213 66.4173L180.735 65.3164C172.733 68.7878 166.553 73.9383 164.027 78.8258L165.093 79.3768ZM139.546 73.9748C150.182 73.9748 159.375 76.2714 164.22 79.596L164.899 78.6065C159.767 75.0852 150.292 72.7748 139.546 72.7748V73.9748ZM111.28 84.8144C111.28 83.4552 111.972 82.0981 113.358 80.7994C114.745 79.4998 116.785 78.3018 119.355 77.2832C124.493 75.2473 131.631 73.9748 139.546 73.9748V72.7748C131.518 72.7748 124.224 74.0632 118.913 76.1676C116.26 77.2191 114.072 78.4861 112.538 79.9238C111.003 81.3623 110.08 83.0146 110.08 84.8144H111.28ZM139.546 95.6539C131.631 95.6539 124.493 94.3814 119.355 92.3456C116.785 91.3269 114.745 90.1289 113.358 88.8293C111.972 87.5307 111.28 86.1736 111.28 84.8144H110.08C110.08 86.6141 111.003 88.2664 112.538 89.705C114.072 91.1426 116.26 92.4096 118.913 93.4611C124.224 95.5656 131.518 96.8539 139.546 96.8539V95.6539ZM166.216 88.3441C164.302 90.4134 160.763 92.2503 156.089 93.567C151.434 94.8785 145.724 95.6539 139.546 95.6539V96.8539C145.819 96.8539 151.639 96.0673 156.415 94.7221C161.171 93.3822 164.962 91.4679 167.097 89.159L166.216 88.3441ZM189.84 86.306C185.192 88.322 180.591 89.4654 176.58 89.768C172.555 90.0718 169.189 89.5242 166.957 88.2323L166.356 89.2708C168.882 90.7332 172.525 91.2774 176.671 90.9646C180.831 90.6507 185.562 89.4694 190.317 87.4069L189.84 86.306Z" fill="black"/>
<ellipse cx="139.547" cy="84.8141" rx="20.662" ry="6.77114" fill="black"/>
<ellipse cx="185.527" cy="76.3608" rx="16.7361" ry="7.22271" transform="rotate(-23.4493 185.527 76.3608)" fill="black"/>
<path d="M97.3525 118.201L94.8067 109.336L88.6059 111.85C86.5613 112.679 85.5739 115.006 86.3989 117.053L91.5956 129.94L91.1018 151.629L85.7086 141.714L52.7949 160.981L60.8227 178.91L72.0615 173.558L87.3739 186.746C89.8388 188.869 93.5464 188.641 95.7326 186.232L105.778 175.163L153.409 164.995L144.044 136.095L137.889 137.968L97.3525 118.201Z" fill="black"/>
<path d="M138.205 137.668L147.386 166.23" stroke="white" stroke-width="1.2"/>
<path d="M87.3405 120.098L94.9433 137.487C96.0165 139.941 99.1519 140.668 101.195 138.935L110.368 131.158V143.883C110.368 146.542 112.914 148.461 115.47 147.729L139.246 140.919M134.512 150.916L125.429 165.152M101.152 180.526L121.079 156.918M107.408 162.688C103.369 155.548 94.6472 150.758 94.7864 149.792C94.9701 148.516 103.922 152.014 107.841 153.889C106.329 151.7 99.907 146.928 94.7864 145.895M65.4138 176.727L97.0881 161.149L90.9575 151.7" stroke="white" stroke-width="1.2"/>
<path fill-rule="evenodd" clip-rule="evenodd" d="M152.837 167.987L148.989 167.194L143.271 179.039L153.41 181.126L152.837 167.987ZM150.223 177.388C150.929 176.922 151.071 175.893 150.541 175.091C150.011 174.289 149.009 174.017 148.303 174.483C147.597 174.95 147.455 175.978 147.985 176.78C148.515 177.582 149.517 177.855 150.223 177.388Z" fill="black"/>
<path d="M224.603 140.801C221.422 138.032 222.766 132.284 234.636 132.994C249.367 133.874 250.911 141.685 244.15 143.06C246.725 144.199 247.95 148.191 248.342 151.84C249.443 149.353 251.32 147.215 254.093 147.59C262.476 148.723 259.163 164.904 255.61 168.003C251.423 171.656 243.137 168.003 237.141 161.952C238.401 164.55 241.66 169.988 247.607 173.516C258.076 179.727 253.465 193.151 241.645 187.072C236.503 184.427 232.514 178.584 228.302 169.451C228.302 175.059 229.41 180.961 231.507 185.422C235.32 193.533 226.644 200.706 219.921 193.246C215.921 188.807 212.663 172.84 217.679 153.221C215.96 159.944 212.489 172.549 207.377 171.656C195.659 169.608 206.049 139.668 224.603 140.801Z" fill="#FCFCF1"/>
<path d="M224.982 159.266L225.521 150.719M231.099 149.611V157.465M236.91 148.194L237.303 155.581M224.603 140.801C221.422 138.032 222.766 132.284 234.636 132.994C249.367 133.874 250.911 141.685 244.15 143.06C249.214 145.3 249.057 158.573 247.607 158.573C246.157 158.573 247.868 146.749 254.093 147.59C262.476 148.723 259.163 164.904 255.61 168.003C251.423 171.656 243.137 168.003 237.141 161.952C238.401 164.55 241.66 169.988 247.607 173.516C258.076 179.727 253.465 193.151 241.645 187.072C236.503 184.427 232.514 178.584 228.302 169.451C228.302 175.059 229.41 180.961 231.507 185.422C235.32 193.533 226.644 200.706 219.921 193.246C215.921 188.807 212.663 172.84 217.679 153.221C215.96 159.944 212.489 172.549 207.377 171.656C195.659 169.608 206.049 139.668 224.603 140.801Z" stroke="black" stroke-width="1.2"/>
<path d="M192.88 333.973C192.88 339.195 187.772 343.962 180.758 343.962C173.743 343.962 168.635 339.195 168.635 333.973C168.635 328.751 173.743 323.984 180.758 323.984C187.772 323.984 192.88 328.751 192.88 333.973Z" fill="#FCFCF1" stroke="black" stroke-width="4"/>
<ellipse cx="180.757" cy="333.974" rx="4.86059" ry="4.1261" fill="black"/>
<path d="M294.156 326.114C294.156 331.336 289.048 336.102 282.033 336.102C275.018 336.102 269.91 331.336 269.91 326.114C269.91 320.892 275.018 316.125 282.033 316.125C289.048 316.125 294.156 320.892 294.156 326.114Z" fill="#FCFCF1" stroke="black" stroke-width="4"/>
<ellipse cx="282.032" cy="326.114" rx="4.86059" ry="4.1261" fill="black"/>
<ellipse cx="150.095" cy="289.955" rx="1.58129" ry="2.04788" transform="rotate(-52.029 150.095 289.955)" fill="black"/>
<ellipse cx="157.31" cy="295.584" rx="1.58129" ry="2.04788" transform="rotate(-52.029 157.31 295.584)" fill="black"/>
<ellipse cx="154.695" cy="284.064" rx="1.58129" ry="2.04788" transform="rotate(-52.029 154.695 284.064)" fill="black"/>
<ellipse cx="161.908" cy="289.693" rx="1.58129" ry="2.04788" transform="rotate(-52.029 161.908 289.693)" fill="black"/>
<path d="M134.833 333.411L96.8023 330.551M131.057 320.241L112.412 314.038" stroke="black" stroke-width="1.2"/>
<path d="M71.0644 134.23C82.3746 137.35 73.6645 150.35 57.0241 153.47L71.0644 161.141L25.3034 164.001L43.7639 151.61V150.35C23.6098 154.092 17.3547 146.47 22.1906 138.586C14.3903 138.586 11.1331 129.29 18.0233 122.79C15.8999 122.833 11.2736 119.898 11.783 114.21C12.5631 105.499 29.0734 101.729 43.7639 109.009V101.729C23.907 99.0453 21.3424 88.9325 21.7934 65.8485C32.7334 58.5927 54.2167 57.4862 68.8544 65.8485C69.7013 88.5731 66.6123 97.939 48.704 102.899V110.959C56.2441 103.549 72.4684 97.6731 78.0846 106.409C84.2474 115.996 75.7445 128.596 71.0644 134.23Z" fill="#FCFCF1"/>
<path d="M57.0241 153.47C73.6645 150.35 82.3746 137.35 71.0644 134.23C75.7445 128.596 84.2474 115.996 78.0846 106.409C72.4684 97.6731 56.2441 103.549 48.704 110.959M57.0241 153.47L71.0644 161.141L25.3034 164.001L43.7639 151.61V150.35M57.0241 153.47L50.5749 150.35L49.9228 139.063M48.704 110.959V102.899C66.6123 97.939 69.7013 88.5731 68.8544 65.8485M48.704 110.959C48.2047 111.45 47.8398 111.854 47.4652 112.409M68.8544 65.8485C54.2167 57.4862 32.7334 58.5927 21.7934 65.8485M68.8544 65.8485C56.2905 74.4782 35.5118 74.465 21.7934 65.8485M21.7934 65.8485C21.3424 88.9325 23.907 99.0453 43.7639 101.729V109.009M43.7639 109.009C29.0734 101.729 12.5631 105.499 11.783 114.21C11.2736 119.898 15.8999 122.833 18.0233 122.79M43.7639 109.009C44.6097 109.51 46.7042 111.148 47.4652 112.409M18.0233 122.79C11.1331 129.29 14.3903 138.586 22.1906 138.586M18.0233 122.79C28.4456 115.51 44.6088 117.776 47.4652 124.183C48.7333 127.028 47.4652 129.439 45.6058 130.589M22.1906 138.586C17.3547 146.47 23.6098 154.092 43.7639 150.35M22.1906 138.586C27.2367 129.807 47.3166 127.292 50.8383 134.23M43.7639 150.35V143.181M69.7644 117.59C49.2485 133.371 42.1813 120.234 47.4652 112.409M50.8383 134.23C52.6967 137.891 48.4054 141.011 43.7639 143.181M50.8383 134.23C51.0928 132.28 52.963 128.263 58.4085 127.791M34.2802 145.997C36.6652 145.298 40.5218 144.697 43.7639 143.181M49.631 132.69L49.4284 124.129" stroke="black" stroke-width="1.2"/>
<path d="M27.4472 78.9031C42.5411 75.8736 59.693 81.3433 62.4575 86.8512C55.2171 102.26 26.5603 99.3331 27.4472 78.9031Z" fill="#D56262"/>
</svg>
