<svg width="172" height="158" viewBox="0 0 172 158" fill="none" xmlns="http://www.w3.org/2000/svg">
<path d="M124.32 62.3899L128.006 157.201H53.177C60.7068 137.426 81.0418 127.875 97.5803 125.068L97.9485 125.005L98.0549 124.648L116.631 62.3899H124.32Z" fill="#79C9C5" stroke="black" stroke-width="1.2"/>
<path d="M129.177 62.3899L152.483 157.201H87.6152C91.0732 147.094 95.0309 140.66 100.05 136.347C105.197 131.923 111.526 129.674 119.768 128.054L120.228 127.964L120.251 127.495L123.451 62.3899H129.177Z" fill="#BEE9E7" stroke="black" stroke-width="1.2"/>
<path d="M143.702 5.61087L139.556 5.33587L128.605 33.7786L135.584 65.2229L168.028 67.3748L169.609 43.5402C169.938 38.5806 166.184 34.2933 161.224 33.9643L158.423 33.7786L151.709 11.9458C150.612 8.37814 147.427 5.85789 143.702 5.61087Z" fill="white" stroke="black" stroke-width="1.2"/>
<path d="M74.1843 1L72.7399 22.7771L70.2123 60.8871L136.068 65.255L140.04 5.36794L74.1843 1Z" fill="#BEE9E7" stroke="black" stroke-width="1.2"/>
<path d="M155.472 52.8713L162.989 49.5421M155.292 55.5934L162.808 52.2642M155.111 58.3156L162.628 54.9863M154.931 61.0377L162.447 57.7085" stroke="black" stroke-width="1.2"/>
<path fill-rule="evenodd" clip-rule="evenodd" d="M106.681 34.8916C108.562 35.4614 109.626 37.4486 109.056 39.3301C106.449 47.9385 103.123 55.9836 98.8675 62.1038C94.626 68.2033 89.1154 72.8603 82.0734 73.6169C75.4736 74.326 69.2546 72.1753 64.3689 68.9033C59.5201 65.656 55.6515 61.0827 53.9065 56.4417L60.5702 53.9361C61.6949 56.9272 64.464 60.3988 68.3304 62.9881C72.1599 65.5528 76.7334 67.0305 81.3129 66.5384C85.4503 66.0939 89.3598 63.3066 93.0225 58.0393C96.6708 52.7928 99.7338 45.5488 102.242 37.2665C102.812 35.385 104.799 34.3217 106.681 34.8916Z" fill="black"/>
<path d="M55.8865 57.5808C49.2623 57.4434 43.0609 53.9628 40.7753 50.5407L51.198 48.7162L70.1271 51.2295C68.4937 55.0207 62.5107 57.7183 55.8865 57.5808Z" fill="white" stroke="black" stroke-width="1.2"/>
<path d="M63.2526 14.9491L63.5916 15.0176L63.8211 14.7588L67.8952 10.16L127.665 27.8604L126.76 41.5062L66.3105 55.0793L54.0295 50.3167L53.9026 50.2672L53.7658 50.2777L22.6118 52.7389L25.6261 7.29184L63.2526 14.9491Z" fill="#79C9C5" stroke="black" stroke-width="1.2"/>
<path d="M65.2946 9.5854C76.3422 10.3181 84.7484 21.1689 83.8986 33.9814C83.0488 46.7939 73.2832 56.4385 62.2357 55.7058C51.1883 54.9729 42.7819 44.1231 43.6316 31.3107C44.4814 18.4983 54.2472 8.85283 65.2946 9.5854Z" fill="white" stroke="black" stroke-width="1.2"/>
<path d="M23.8305 6.8354C34.8781 7.56814 43.2843 18.4189 42.4345 31.2314C41.5847 44.0439 31.8191 53.6885 20.7716 52.9558C9.72419 52.2229 1.31776 41.3731 2.16753 28.5607C3.01732 15.7483 12.7831 6.10283 23.8305 6.8354Z" fill="white" stroke="black" stroke-width="1.2"/>
<path d="M21.3576 45.4176C27.334 45.4176 32.1788 38.6604 32.1788 30.3249C32.1788 21.9894 27.334 15.2322 21.3576 15.2322C19.6417 15.2322 18.0192 15.7891 16.5778 16.7805C19.2928 17.3952 21.3576 20.4903 21.3576 24.2159C21.3576 28.3837 18.7737 31.7623 15.5863 31.7623C13.4943 31.7623 11.6623 30.3069 10.6502 28.1282C10.5752 28.8453 10.5364 29.5788 10.5364 30.3249C10.5364 38.6604 15.3812 45.4176 21.3576 45.4176Z" fill="black"/>
<path d="M62.9337 47.9806C68.9101 47.9806 73.7549 41.2233 73.7549 32.8879C73.7549 24.5524 68.9101 17.7952 62.9337 17.7952C61.2179 17.7952 59.5954 18.3521 58.154 19.3435C60.8689 19.9582 62.9337 23.0533 62.9337 26.7789C62.9337 30.9466 60.3498 34.3253 57.1624 34.3253C55.0705 34.3253 53.2385 32.8699 52.2263 30.6912C52.1513 31.4083 52.1125 32.1418 52.1125 32.8879C52.1125 41.2233 56.9573 47.9806 62.9337 47.9806Z" fill="black"/>
<path fill-rule="evenodd" clip-rule="evenodd" d="M148.249 42.7416C150.198 42.9923 151.576 44.7762 151.325 46.7261C150.021 56.872 147.812 64.6713 144.161 70.1612C140.358 75.879 135.123 78.8879 128.532 79.5973C121.931 80.3077 115.828 78.1502 111.055 74.8557C106.317 71.5856 102.616 67.0104 100.893 62.4203L107.558 59.9184C108.7 62.9604 111.381 66.4301 115.099 68.9966C118.782 71.5388 123.21 73.0097 127.77 72.519C132.339 72.0272 135.645 70.11 138.233 66.2186C140.973 62.0992 143.006 55.6061 144.264 45.8182C144.515 43.8684 146.299 42.4909 148.249 42.7416Z" fill="black"/>
<path d="M105.018 62.9437C96.6017 65.5318 92.158 62.1744 91.4751 59.9124C85.4147 59.6228 81.5976 56.246 79.5987 52.4747C86.5068 50.047 88.4538 45.5587 89.442 39.702C90.6772 32.381 85.4125 13.725 92.0063 12.2681C95.9373 11.3996 98.2098 14.8126 98.7988 17.2357C98.677 15.3037 98.7855 10.9612 103.069 11.2453C106.677 11.4845 108.784 17.396 109.257 19.6859C109.273 17.5539 109.92 13.4562 113.527 13.6955C119.125 14.0668 120.243 33.0872 117.515 44.0734L123.843 42.8619C121.828 48.751 118.557 53.156 112.39 55.4024C113.593 56.7369 111.396 60.9827 105.018 62.9437Z" fill="white"/>
<path d="M91.4751 59.9124C92.158 62.1744 96.6017 65.5318 105.018 62.9437C111.396 60.9827 113.593 56.7369 112.39 55.4024M91.4751 59.9124C85.4147 59.6228 81.5976 56.246 79.5987 52.4747C86.5068 50.047 88.4538 45.5588 89.442 39.702C90.6772 32.381 85.4125 13.725 92.0063 12.2681C95.9373 11.3996 98.2098 14.8126 98.7988 17.2357M91.4751 59.9124C93.5539 59.9667 98.3999 59.8698 101.153 59.0487M112.39 55.4024C118.557 53.156 121.828 48.751 123.843 42.8619L117.515 44.0734M112.39 55.4024L106.992 57.6793M117.515 44.0734C120.243 33.0872 119.125 14.0668 113.527 13.6955C109.92 13.4562 109.273 17.5539 109.257 19.6859M117.515 44.0734C117.034 45.0453 116.221 46.6225 115.284 47.5641M109.257 19.6859C108.784 17.396 106.677 11.4845 103.069 11.2453C98.7855 10.9612 98.677 15.3037 98.7988 17.2357M109.257 19.6859C110.241 23.6827 110.261 34.3826 108.782 40.1064M98.7988 17.2357C99.9961 22.4176 100.729 34.9298 99.2695 40.3538M97.097 44.8522C96.7322 46.5846 95.7919 50.2111 94.9494 50.8579M102.571 45.2152C102.537 45.7149 101.65 49.6712 100.713 50.6128M107.82 45.187C107.66 46.3474 107.12 48.955 106.245 50.1014" stroke="black" stroke-width="1.2"/>
</svg>
