<svg width="338" height="211" viewBox="0 0 338 211" fill="none" xmlns="http://www.w3.org/2000/svg">
  <g clip-path="url(#clip0_311_11303)">
    <path opacity="0.16"
      d="M245.855 131.949C245.855 121.361 254.439 112.777 265.028 112.777H295.798C306.387 112.777 314.97 121.361 314.97 131.949V152.813C314.97 157.011 316.348 161.093 318.892 164.432L331.768 181.331C334.312 184.67 335.69 188.752 335.69 192.95V226.857C335.69 237.445 327.106 246.029 316.517 246.029H265.028C254.439 246.029 245.855 237.445 245.855 226.857V131.949Z"
      fill="#867E79" />
    <path opacity="0.5"
      d="M314.086 211.939L326.491 205.736M314.086 205.173L326.491 198.97M314.086 198.406L326.491 192.203"
      stroke="#0A0A0A" stroke-width="1.35333" />
    <rect x="256.621" y="124.826" width="47.5287" height="107.973" rx="7.89441" fill="white" />
    <path opacity="0.5"
      d="M275.176 232.883V217.658M275.176 142.098V183.825M275.176 217.658H291.528V197.359M275.176 217.658V183.825M275.176 183.825H291.528V164.089"
      stroke="#4F4B48" stroke-width="1.35333" />
    <g opacity="0.9">
      <rect x="266.156" y="134.207" width="18.0444" height="13.5333" fill="#24B4AD" />
      <rect x="285.328" y="161.273" width="12.4055" height="7.89441" fill="#24B4AD" />
      <rect x="285.328" y="193.979" width="12.4055" height="7.89441" fill="#24B4AD" />
    </g>
    <path
      d="M137.59 168.98C137.59 160.26 144.659 153.191 153.379 153.191H222.913C231.633 153.191 238.702 160.26 238.702 168.98V230.41C238.702 239.13 231.633 246.199 222.913 246.199H153.379C144.659 246.199 137.59 239.13 137.59 230.41V168.98Z"
      fill="#2C3036" fill-opacity="0.52" />
    <path
      d="M173.785 175.934L159.018 200.181L173.785 224.428M180.817 224.428L196.99 175.934M204.022 175.934L218.79 200.181L204.022 224.428"
      stroke="white" stroke-width="1.35333" />
    <path
      d="M133.077 41.7265H90.222L126.311 245.29H7.89453V69.9209C7.89453 42.5154 30.111 20.2988 57.5165 20.2988H109.394C130.571 20.2988 147.738 37.4662 147.738 58.6431V68.7931H133.077V41.7265Z"
      fill="white" />
    <path
      d="M68.795 32.7051H58.6451C37.4681 32.7051 20.3008 49.8724 20.3008 71.0494V94.7326M37.2174 75.5605V103.755M94.7338 143.227L110.523 233.449"
      stroke="#C5E7E6" stroke-width="1.12777" />
    <path
      d="M242.725 71.7681H261.26C269.075 71.7681 275.411 78.1037 275.411 85.9191C275.411 93.7344 269.075 100.07 261.26 100.07H242.725V71.7681Z"
      stroke="#778E90" stroke-width="6.76664" />
    <path opacity="0.9"
      d="M128.875 68.3848H151.231L173.587 105.645V142.905H151.231L128.875 68.3848Z" fill="#778E90" />
    <path
      d="M238.465 68.385V58.3028C238.465 40.6297 224.138 26.3027 206.465 26.3027V26.3027C188.792 26.3027 174.465 40.6297 174.465 58.3028V68.385"
      stroke="#778E90" stroke-width="2.25555" />
    <path d="M31.5766 245.854H96.9874L108.265 196.231H20.2988L31.5766 245.854Z" fill="#95E7E3" />
    <path
      d="M64.8459 174.804V154.786M64.8459 55.8242V68.5117M64.8459 126.874V154.786M64.8459 126.874L92.3958 105.446M64.8459 126.874V76.688M105.446 95.2963L97.5514 101.499M64.8459 154.786L37.2155 134.255M24.2461 124.618L32.7044 130.903M92.3958 105.446L104.318 109.393M92.3958 105.446L97.5514 101.499M97.5514 101.499L96.4236 90.7852M64.8459 76.688L79.507 67.6658M64.8459 76.688V68.5117M64.8459 68.5117L54.696 59.7714M32.7044 130.903L34.3961 120.107M32.7044 130.903L37.2155 134.255M37.2155 134.255L25.3739 138.152"
      stroke="#24B4AD" stroke-width="2.25555" />
    <circle cx="31.5621" cy="129.752" r="15.7809" fill="#95E7E3" />
    <path fill-rule="evenodd" clip-rule="evenodd"
      d="M43.3664 140.229L37.0143 135.509L25.7283 139.223L25.0234 137.08L34.7995 133.864L32.0337 131.809L23.5754 125.524L24.9207 123.713L31.8811 128.885L33.2839 119.933L35.5122 120.282L33.9261 130.405L37.8901 133.35L44.7408 138.441C44.3251 139.07 43.8655 139.668 43.3664 140.229Z"
      fill="#FFE5B1" />
    <ellipse cx="65.3156" cy="65.7523" rx="20.6028" ry="20.1644" fill="#95E7E3" />
    <path fill-rule="evenodd" clip-rule="evenodd"
      d="M63.7162 85.857V76.688V69.0288L53.9581 60.626L55.4299 58.9168L63.7162 66.0523V55.8242H65.9718V68.5117V74.6698L78.914 66.7054L80.0961 68.6263L65.9718 77.3182V85.9067C65.7533 85.9134 65.5339 85.9168 65.3137 85.9168C64.7762 85.9168 64.2434 85.8966 63.7162 85.857Z"
      fill="#11857F" />
    <circle cx="99.0697" cy="100.822" r="16.6576" fill="#82E2DD" />
    <path fill-rule="evenodd" clip-rule="evenodd"
      d="M85.0477 109.736L91.7074 104.556L91.7142 104.551L96.3675 100.988L95.3059 90.9032L97.5491 90.6671L98.4632 99.3514L104.753 94.4095L106.146 96.1831L98.252 102.386L98.2465 102.39L98.2409 102.394L94.7781 105.046L104.676 108.323L103.967 110.464L92.6169 106.706L86.408 111.535C85.9156 110.968 85.4608 110.367 85.0477 109.736Z"
      fill="white" />
    <path d="M20.2988 174.805H108.265V196.232H20.2988V174.805Z" fill="#24B4AD" />
    <path
      d="M267.299 15.16C278.879 31.0128 286.288 35.238 301.118 33.3007C291.1 42.6376 288.253 50.0862 292.355 70.6644C280.675 53.491 273.462 49.9178 258.536 52.5237C270.229 41.9296 271.948 33.731 267.299 15.16Z"
      fill="#FFF7CC" />
    <path
      d="M308.654 73.5821C308.503 84.0891 310.593 88.4212 318.616 92.8926C310.231 93.1155 306.076 95.116 300.495 104.883C301.084 93.8066 298.851 89.8075 290.534 85.5722C300.209 85.4349 304.084 82.7318 308.654 73.5821Z"
      fill="#F5FFFF" />
    <ellipse cx="320.623" cy="53.2561" rx="10.5445" ry="12.362"
      transform="rotate(42.4492 320.623 53.2561)" fill="#98DEDA" />
    <rect x="173.59" y="68.3828" width="65.7536" height="74.5207" fill="#FFBC8C" />
    <path
      d="M187.617 126.247V86.7949L206.626 104.07L225.694 86.7949V126.247L206.626 109.032L187.617 126.247Z"
      fill="#C8F3F1" />
  </g>
  <defs>
    <clipPath id="clip0_311_11303">
      <rect width="338" height="211" fill="white" />
    </clipPath>
  </defs>
</svg>