<svg width="339" height="249" viewBox="0 0 339 249" fill="none" xmlns="http://www.w3.org/2000/svg">
<path opacity="0.16" d="M246.523 132.394C246.523 121.806 255.106 113.222 265.695 113.222H296.465C307.054 113.222 315.637 121.806 315.637 132.394V153.257C315.637 157.455 317.015 161.537 319.559 164.877L332.435 181.776C334.979 185.115 336.357 189.197 336.357 193.395V227.301C336.357 237.89 327.773 246.474 317.185 246.474H265.695C255.106 246.474 246.523 237.89 246.523 227.301V132.394Z" fill="#867E79"/>
<path opacity="0.5" d="M314.753 229.384L327.159 223.181M314.753 222.617L327.159 216.415M314.753 215.851L327.159 209.648" stroke="#0A0A0A" stroke-width="1.35333"/>
<path opacity="0.5" d="M314.753 229.384L327.159 223.181M314.753 222.617L327.159 216.415M314.753 215.851L327.159 209.648" stroke="#0A0A0A" stroke-width="1.35333"/>
<rect x="257.288" y="125.271" width="47.5287" height="107.973" rx="7.89441" fill="white"/>
<path opacity="0.5" d="M275.843 233.328V218.103M275.843 142.542V184.27M275.843 218.103H292.196V197.803M275.843 218.103V184.27M275.843 184.27H292.196V164.534" stroke="#4F4B48" stroke-width="1.35333"/>
<g opacity="0.9">
<rect x="266.823" y="134.652" width="18.0444" height="13.5333" fill="#24B4AD"/>
<rect x="285.995" y="161.718" width="12.4055" height="7.89441" fill="#24B4AD"/>
<rect x="285.995" y="194.423" width="12.4055" height="7.89441" fill="#24B4AD"/>
</g>
<path d="M138.255 169.425C138.255 160.705 145.324 153.636 154.044 153.636H223.578C232.298 153.636 239.367 160.705 239.367 169.425V230.855C239.367 239.575 232.298 246.644 223.578 246.644H154.044C145.324 246.644 138.255 239.575 138.255 230.855V169.425Z" fill="#2C3036" fill-opacity="0.52"/>
<path d="M174.45 176.378L159.683 200.626L174.45 224.873M181.482 224.873L197.656 176.378M204.688 176.378L219.455 200.626L204.688 224.873" stroke="white" stroke-width="1.35333"/>
<path d="M133.745 42.1713H90.8892L126.978 245.734H8.56177V70.3657C8.56177 42.9602 30.7783 20.7437 58.1838 20.7437H110.061C131.238 20.7437 148.406 37.911 148.406 59.088V69.2379H133.745V42.1713Z" fill="white"/>
<path d="M69.4623 33.1499H59.3123C38.1353 33.1499 20.968 50.3172 20.968 71.4942V95.1774M37.8846 76.0053V104.2M95.4011 143.672L111.19 233.894" stroke="#C5E7E6" stroke-width="1.12777"/>
<path d="M243.392 100.515V72.2129H261.927C269.742 72.2129 276.078 78.5485 276.078 86.3639C276.078 94.1792 269.742 100.515 261.927 100.515H243.392Z" stroke="#778E90" stroke-width="6.76664"/>
<path opacity="0.9" d="M129.542 68.8296H151.898L174.255 106.09V143.35H151.898L129.542 68.8296Z" fill="#778E90"/>
<path d="M239.132 68.8298V58.7476C239.132 41.0745 224.805 26.7476 207.132 26.7476V26.7476C189.459 26.7476 175.132 41.0745 175.132 58.7476V68.8298" stroke="#778E90" stroke-width="2.25555"/>
<path d="M32.2438 246.298H97.6547L108.932 196.676H20.9661L32.2438 246.298Z" fill="#95E7E3"/>
<path d="M65.5132 175.249V155.231M65.5132 56.269V68.9565M65.5132 127.319V155.231M65.5132 127.319L93.0631 105.891M65.5132 127.319V77.1329M106.113 95.7411L98.2186 101.944M65.5132 155.231L37.8827 134.7M24.9133 125.063L33.3716 131.348M93.0631 105.891L104.985 109.838M93.0631 105.891L98.2186 101.944M98.2186 101.944L97.0908 91.23M65.5132 77.1329L80.1742 68.1107M65.5132 77.1329V68.9565M65.5132 68.9565L55.3632 60.2163M33.3716 131.348L35.0633 120.552M33.3716 131.348L37.8827 134.7M37.8827 134.7L26.0411 138.597" stroke="#24B4AD" stroke-width="2.25555"/>
<circle cx="32.2293" cy="130.196" r="15.7809" fill="#95E7E3"/>
<path fill-rule="evenodd" clip-rule="evenodd" d="M44.0337 140.674L37.6816 135.954L26.3956 139.668L25.6906 137.525L35.4667 134.308L32.701 132.253L24.2427 125.968L25.5879 124.158L32.5483 129.33L33.9511 120.377L36.1794 120.727L34.5933 130.849L38.5573 133.795L45.408 138.885C44.9923 139.515 44.5328 140.112 44.0337 140.674Z" fill="#FFE5B1"/>
<ellipse cx="65.9828" cy="66.1971" rx="20.6028" ry="20.1644" fill="#95E7E3"/>
<path fill-rule="evenodd" clip-rule="evenodd" d="M64.3835 86.3019V77.1329V69.4736L54.6254 61.0708L56.0972 59.3617L64.3835 66.4971V56.269H66.639V68.9565V75.1146L79.5812 67.1502L80.7633 69.0711L66.639 77.763V86.3515C66.4205 86.3582 66.2011 86.3616 65.981 86.3616C65.4434 86.3616 64.9107 86.3414 64.3835 86.3019Z" fill="#11857F"/>
<circle cx="99.7369" cy="101.266" r="16.6576" fill="#82E2DD"/>
<path fill-rule="evenodd" clip-rule="evenodd" d="M85.715 110.181L92.3746 105.001L92.3814 104.996L97.0347 101.433L95.9732 91.3482L98.2163 91.1121L99.1305 99.7963L105.42 94.8544L106.814 96.628L98.9193 102.831L98.9137 102.835L98.9081 102.839L95.4453 105.491L105.344 108.768L104.635 110.909L93.2841 107.151L87.0753 111.98C86.5828 111.413 86.1281 110.812 85.715 110.181Z" fill="white"/>
<path d="M20.9661 175.25H108.932V196.677H20.9661V175.25Z" fill="#24B4AD"/>
<path d="M267.966 15.6048C279.546 31.4576 286.955 35.6829 301.785 33.7455C291.767 43.0825 288.921 50.5311 293.023 71.1092C281.342 53.9358 274.129 50.3626 259.203 52.9685C270.896 42.3745 272.615 34.1759 267.966 15.6048Z" fill="#FFF7CC"/>
<path d="M309.322 74.0269C309.171 84.5339 311.261 88.866 319.283 93.3375C310.898 93.5603 306.743 95.5608 301.162 105.328C301.752 94.2514 299.518 90.2524 291.201 86.017C300.876 85.8798 304.752 83.1766 309.322 74.0269Z" fill="#F5FFFF"/>
<ellipse cx="321.29" cy="53.7009" rx="10.5445" ry="12.362" transform="rotate(42.4492 321.29 53.7009)" fill="#98DEDA"/>
<rect x="174.257" y="68.8276" width="65.7536" height="74.5207" fill="#FFBC8C"/>
<path d="M188.284 126.692V87.2397L207.293 104.515L226.362 87.2397V126.692L207.293 109.476L188.284 126.692Z" fill="#C8F3F1"/>
</svg>
