<svg width="16" height="16" viewBox="0 0 16 16" fill="none" xmlns="http://www.w3.org/2000/svg">
<g clip-path="url(#clip0_2179_3159)">
<path d="M0 4C0 1.79086 1.79086 0 4 0H12C14.2091 0 16 1.79086 16 4V12C16 14.2091 14.2091 16 12 16H4C1.79086 16 0 14.2091 0 12V4Z" fill="#98EFEB"/>
<path d="M3 10.5377V4C4.89662 4.24984 5.98327 4.70138 7.99215 6.40647C9.85621 4.9115 10.9701 4.49396 13 4V10.5377C10.8691 10.8183 9.78975 11.3623 7.99215 13C6.14195 11.4918 5.05954 10.956 3 10.5377Z" fill="#0A0A0A"/>
</g>
<defs>
<clipPath id="clip0_2179_3159">
<rect width="16" height="16" fill="white"/>
</clipPath>
</defs>
</svg>
