<svg width="1980" height="680" viewBox="0 0 1980 680" fill="none" xmlns="http://www.w3.org/2000/svg">
<g clip-path="url(#clip0_473_2685)">
<rect width="680" height="1980" transform="translate(1980) rotate(90)" fill="#C8F3F1"/>
<rect x="1182.78" y="147.889" width="147.889" height="147.889" transform="rotate(90 1182.78 147.889)" fill="#E9DFFF"/>
<rect x="1034.89" y="295.777" width="147.889" height="147.889" transform="rotate(90 1034.89 295.777)" fill="#E9DFFF"/>
<rect x="1182.89" y="443.666" width="147.889" height="147.889" transform="rotate(90 1182.89 443.666)" fill="#E9DFFF"/>
<rect x="1182.78" y="591.555" width="147.889" height="147.889" transform="rotate(90 1182.78 591.555)" fill="#E9DFFF"/>
<rect x="1330.67" y="295.777" width="147.889" height="147.889" transform="rotate(90 1330.67 295.777)" fill="#E9DFFF"/>
<rect x="886.998" width="147.889" height="147.889" transform="rotate(90 886.998 0)" fill="#E9DFFF"/>
<rect x="887" y="295.777" width="147.889" height="147.889" transform="rotate(90 887 295.777)" fill="white"/>
<rect x="739.11" y="443.666" width="147.889" height="147.889" transform="rotate(90 739.11 443.666)" fill="#E9DFFF"/>
<rect x="739.11" y="147.889" width="147.889" height="147.889" transform="rotate(90 739.11 147.889)" fill="#E9DFFF"/>
<rect x="739.11" width="147.889" height="147.889" transform="rotate(90 739.11 0)" fill="#E9DFFF"/>
<rect x="591.221" width="147.889" height="147.889" transform="rotate(90 591.221 0)" fill="#E9DFFF"/>
<rect x="591.221" y="147.889" width="147.889" height="147.889" transform="rotate(90 591.221 147.889)" fill="#E9DFFF"/>
<rect x="591.221" y="295.777" width="147.889" height="147.889" transform="rotate(90 591.221 295.777)" fill="white"/>
<rect x="443.332" y="295.777" width="147.889" height="147.889" transform="rotate(90 443.332 295.777)" fill="#E9DFFF"/>
<rect x="295.444" y="295.777" width="147.889" height="147.889" transform="rotate(90 295.444 295.777)" fill="#E9DFFF"/>
<rect x="443.333" width="147.889" height="147.889" transform="rotate(90 443.333 0)" fill="white"/>
<rect x="295.444" width="147.889" height="147.889" transform="rotate(90 295.444 0)" fill="#E9DFFF"/>
<rect x="147.555" y="147.889" width="147.889" height="147.889" transform="rotate(90 147.555 147.889)" fill="#E9DFFF"/>
<rect x="147.555" y="591.555" width="147.889" height="147.889" transform="rotate(90 147.555 591.555)" fill="#E9DFFF"/>
<rect x="295.444" y="443.666" width="147.889" height="147.889" transform="rotate(90 295.444 443.666)" fill="#E9DFFF"/>
<rect x="295.444" y="591.555" width="147.889" height="147.889" transform="rotate(90 295.444 591.555)" fill="#E9DFFF"/>
<rect x="591.221" y="443.666" width="147.889" height="147.889" transform="rotate(90 591.221 443.666)" fill="#E9DFFF"/>
<rect x="739.11" y="591.557" width="147.889" height="147.889" transform="rotate(90 739.11 591.557)" fill="#E9DFFF"/>
<rect x="887" y="591.555" width="147.889" height="147.889" transform="rotate(90 887 591.555)" fill="#E9DFFF"/>
</g>
<defs>
<clipPath id="clip0_473_2685">
<rect width="680" height="1980" fill="white" transform="translate(1980) rotate(90)"/>
</clipPath>
</defs>
</svg>
