<svg width="115" height="26" viewBox="0 0 115 26" fill="none" xmlns="http://www.w3.org/2000/svg">
<g clip-path="url(#clip0_311_11276)">
<path d="M35.7703 4.06045C35.3494 2.46144 34.1132 1.20485 32.5403 0.776818C29.6924 0.000244373 18.2669 0.000244141 18.2669 0.000244141C18.2669 0.000244141 6.8417 0.000244373 3.99364 0.776818C2.42076 1.20485 1.18469 2.46144 0.763648 4.06045C-0.000243912 6.95577 -0.000244141 13.0002 -0.000244141 13.0002C-0.000244141 13.0002 -0.000243912 19.0447 0.763648 21.94C1.18469 23.539 2.42076 24.7956 3.99364 25.2236C6.8417 26.0002 18.2669 26.0002 18.2669 26.0002C18.2669 26.0002 29.6924 26.0002 32.5403 25.2236C34.1132 24.7956 35.3494 23.539 35.7703 21.94C36.5343 19.0447 36.5343 13.0002 36.5343 13.0002C36.5343 13.0002 36.5312 6.95577 35.7703 4.06045Z" fill="#FF0000"/>
<path d="M14.6091 18.571L24.1007 13.0005L14.6091 7.42993V18.571Z" fill="white"/>
<path d="M44.2484 16.9046L40.1462 1.84399H43.7251L45.1627 8.67111C45.5296 10.3527 45.7972 11.7866 45.9717 12.9728H46.0769C46.1972 12.1229 46.468 10.6982 46.886 8.69558L48.3746 1.84399H51.9535L47.8002 16.9046V24.1292H44.2455V16.9046H44.2484Z" fill="#282828"/>
<path d="M53.0289 23.6511C52.3072 23.1558 51.7929 22.3853 51.4861 21.3397C51.1824 20.2941 51.0291 18.9061 51.0291 17.1694V14.806C51.0291 13.0542 51.2035 11.6448 51.5523 10.5839C51.9012 9.52296 52.4455 8.74638 53.1853 8.26026C53.9252 7.77414 54.8966 7.52954 56.0996 7.52954C57.2845 7.52954 58.2318 7.77719 58.9476 8.27249C59.6603 8.76778 60.1836 9.54435 60.5144 10.5961C60.8453 11.6509 61.0107 13.0542 61.0107 14.806V17.1694C61.0107 18.9061 60.8483 20.3002 60.5266 21.3519C60.2047 22.4067 59.6814 23.1772 58.9596 23.6633C58.2378 24.1495 57.2574 24.394 56.0214 24.394C54.7462 24.397 53.7508 24.1464 53.0289 23.6511ZM57.077 21.1013C57.2754 20.5693 57.3777 19.704 57.3777 18.4995V13.4273C57.3777 12.2593 57.2785 11.4032 57.077 10.8651C56.8755 10.324 56.5237 10.0549 56.0183 10.0549C55.5312 10.0549 55.1853 10.324 54.9868 10.8651C54.7853 11.4063 54.6861 12.2593 54.6861 13.4273V18.4995C54.6861 19.704 54.7822 20.5723 54.9748 21.1013C55.1673 21.6332 55.5131 21.8992 56.0183 21.8992C56.5237 21.8992 56.8755 21.6332 57.077 21.1013Z" fill="#282828"/>
<path d="M72.6538 24.1326H69.8328L69.52 22.1392H69.4419C68.6749 23.6434 67.526 24.3955 65.9923 24.3955C64.9306 24.3955 64.1457 24.0408 63.6405 23.3347C63.1352 22.6253 62.8826 21.5186 62.8826 20.0144V7.849H66.4886V19.8003C66.4886 20.528 66.5667 21.0446 66.7231 21.3535C66.8795 21.6622 67.1411 21.8181 67.508 21.8181C67.8208 21.8181 68.1216 21.7204 68.4103 21.5247C68.699 21.3289 68.9095 21.0813 69.0508 20.7818V7.84595H72.6538V24.1326Z" fill="#282828"/>
<path d="M82.4489 4.79326H78.8701V24.1311H75.3423V4.79326H71.7634V1.84595H82.4489V4.79326Z" fill="#282828"/>
<path d="M91.1479 24.1326H88.3269L88.0142 22.1392H87.936C87.1691 23.6434 86.0203 24.3955 84.4864 24.3955C83.4248 24.3955 82.6399 24.0408 82.1346 23.3347C81.6294 22.6253 81.3767 21.5186 81.3767 20.0144V7.849H84.9827V19.8003C84.9827 20.528 85.0608 21.0446 85.2172 21.3535C85.3736 21.6622 85.6353 21.8181 86.0023 21.8181C86.3149 21.8181 86.6157 21.7204 86.9044 21.5247C87.1932 21.3289 87.4037 21.0813 87.545 20.7818V7.84595H91.1479V24.1326Z" fill="#282828"/>
<path d="M103.079 10.4507C102.86 9.42341 102.508 8.68046 102.021 8.21879C101.533 7.75714 100.863 7.52783 100.009 7.52783C99.347 7.52783 98.7275 7.71738 98.153 8.09956C97.5786 8.48173 97.1335 8.98008 96.8207 9.60073H96.7937V1.02173H93.3201V24.1294H96.2974L96.6643 22.5885H96.7426C97.0222 23.1388 97.4403 23.5699 97.9966 23.891C98.553 24.2089 99.1726 24.3679 99.8523 24.3679C101.07 24.3679 101.97 23.7962 102.544 22.6557C103.118 21.5122 103.407 19.7298 103.407 17.3023V14.7249C103.407 12.9058 103.296 11.478 103.079 10.4507ZM99.774 17.0943C99.774 18.2806 99.7259 19.2101 99.6296 19.8827C99.5335 20.5553 99.374 21.0354 99.1455 21.3166C98.9199 21.6009 98.6131 21.7415 98.2312 21.7415C97.9335 21.7415 97.6598 21.6712 97.4071 21.5276C97.1546 21.3869 96.9501 21.1729 96.7937 20.8916V11.6492C96.9139 11.2058 97.1245 10.8451 97.4222 10.5608C97.717 10.2764 98.0418 10.1358 98.3876 10.1358C98.7546 10.1358 99.0372 10.2825 99.2358 10.573C99.4372 10.8665 99.5755 11.3557 99.6538 12.0466C99.7319 12.7376 99.7711 13.719 99.7711 14.9939V17.0943H99.774Z" fill="#282828"/>
<path d="M108.524 18.0333C108.524 19.0789 108.554 19.8616 108.615 20.3845C108.675 20.9072 108.801 21.2864 108.994 21.528C109.186 21.7664 109.481 21.8856 109.881 21.8856C110.419 21.8856 110.792 21.6716 110.991 21.2467C111.192 20.8217 111.3 20.1124 111.318 19.1218L114.428 19.3082C114.446 19.4489 114.455 19.6445 114.455 19.8922C114.455 21.3964 114.049 22.5216 113.24 23.2645C112.431 24.0075 111.285 24.3804 109.806 24.3804C108.028 24.3804 106.783 23.8148 106.07 22.6806C105.355 21.5463 105 19.7944 105 17.4218V14.5785C105 12.1357 105.37 10.3501 106.109 9.22504C106.849 8.09991 108.115 7.53735 109.911 7.53735C111.147 7.53735 112.097 7.76666 112.759 8.22833C113.421 8.68998 113.887 9.40541 114.157 10.3807C114.428 11.356 114.563 12.7013 114.563 14.4195V17.2078H108.524V18.0333ZM108.982 10.3593C108.798 10.5886 108.678 10.9647 108.615 11.4875C108.554 12.0103 108.524 12.8022 108.524 13.8662V15.0341H111.162V13.8662C111.162 12.8205 111.126 12.0286 111.057 11.4875C110.988 10.9463 110.861 10.5672 110.678 10.344C110.494 10.1239 110.212 10.0108 109.83 10.0108C109.445 10.0138 109.162 10.13 108.982 10.3593Z" fill="#282828"/>
</g>
<defs>
<clipPath id="clip0_311_11276">
<rect width="114.562" height="26" fill="white"/>
</clipPath>
</defs>
</svg>
